<svg viewBox="0 0 330 200" xmlns="http://www.w3.org/2000/svg"><g><g><g><g><g><line x1="53.1875" y1="176" x2="48.1875" y2="176" style="visibility: inherit;" fill="rgb(0, 0, 0)" stroke="rgb(204, 204, 204)" stroke-width="1px"></line><line x1="53.1875" y1="163.42857142857144" x2="48.1875" y2="163.42857142857144" style="visibility: inherit;" fill="rgb(0, 0, 0)" stroke="rgb(204, 204, 204)" stroke-width="1px"></line><line x1="53.1875" y1="150.85714285714286" x2="48.1875" y2="150.85714285714286" style="visibility: inherit;" fill="rgb(0, 0, 0)" stroke="rgb(204, 204, 204)" stroke-width="1px"></line><line x1="53.1875" y1="138.28571428571428" x2="48.1875" y2="138.28571428571428" style="visibility: inherit;" fill="rgb(0, 0, 0)" stroke="rgb(204, 204, 204)" stroke-width="1px"></line><line x1="53.1875" y1="125.71428571428572" x2="48.1875" y2="125.71428571428572" style="visibility: inherit;" fill="rgb(0, 0, 0)" stroke="rgb(204, 204, 204)" stroke-width="1px"></line><line x1="53.1875" y1="113.14285714285714" x2="48.1875" y2="113.14285714285714" style="visibility: inherit;" fill="rgb(0, 0, 0)" stroke="rgb(204, 204, 204)" stroke-width="1px"></line><line x1="53.1875" y1="100.57142857142857" x2="48.1875" y2="100.57142857142857" style="visibility: inherit;" fill="rgb(0, 0, 0)" stroke="rgb(204, 204, 204)" stroke-width="1px"></line><line x1="53.1875" y1="88" x2="48.1875" y2="88" style="visibility: inherit;" fill="rgb(0, 0, 0)" stroke="rgb(204, 204, 204)" stroke-width="1px"></line><line x1="53.1875" y1="75.42857142857143" x2="48.1875" y2="75.42857142857143" style="visibility: inherit;" fill="rgb(0, 0, 0)" stroke="rgb(204, 204, 204)" stroke-width="1px"></line><line x1="53.1875" y1="62.85714285714285" x2="48.1875" y2="62.85714285714285" style="visibility: inherit;" fill="rgb(0, 0, 0)" stroke="rgb(204, 204, 204)" stroke-width="1px"></line><line x1="53.1875" y1="50.285714285714285" x2="48.1875" y2="50.285714285714285" style="visibility: inherit;" fill="rgb(0, 0, 0)" stroke="rgb(204, 204, 204)" stroke-width="1px"></line><line x1="53.1875" y1="37.714285714285715" x2="48.1875" y2="37.714285714285715" style="visibility: inherit;" fill="rgb(0, 0, 0)" stroke="rgb(204, 204, 204)" stroke-width="1px"></line><line x1="53.1875" y1="25.142857142857153" x2="48.1875" y2="25.142857142857153" style="visibility: inherit;" fill="rgb(0, 0, 0)" stroke="rgb(204, 204, 204)" stroke-width="1px"></line><line x1="53.1875" y1="12.571428571428566" x2="48.1875" y2="12.571428571428566" style="visibility: inherit;" fill="rgb(0, 0, 0)" stroke="rgb(204, 204, 204)" stroke-width="1px"></line><line x1="53.1875" y1="0" x2="48.1875" y2="0" style="visibility: inherit;" fill="rgb(0, 0, 0)" stroke="rgb(204, 204, 204)" stroke-width="1px"></line></g><g transform="translate(43.1875, 0)"><text x="0" y="176" dx="0em" dy="0.3em" style="text-anchor: end; visibility: hidden; font-family: Roboto, sans-serif; font-size: 12px; font-weight: 200;" fill="rgb(33, 33, 33)" stroke="none" stroke-width="1px">22.5</text><text x="0" y="163.42857142857144" dx="0em" dy="0.3em" style="text-anchor: end; visibility: inherit; font-family: Roboto, sans-serif; font-size: 12px; font-weight: 200;" fill="rgb(33, 33, 33)" stroke="none" stroke-width="1px">23</text><text x="0" y="150.85714285714286" dx="0em" dy="0.3em" style="text-anchor: end; visibility: hidden; font-family: Roboto, sans-serif; font-size: 12px; font-weight: 200;" fill="rgb(33, 33, 33)" stroke="none" stroke-width="1px">23.5</text><text x="0" y="138.28571428571428" dx="0em" dy="0.3em" style="text-anchor: end; visibility: inherit; font-family: Roboto, sans-serif; font-size: 12px; font-weight: 200;" fill="rgb(33, 33, 33)" stroke="none" stroke-width="1px">24</text><text x="0" y="125.71428571428572" dx="0em" dy="0.3em" style="text-anchor: end; visibility: hidden; font-family: Roboto, sans-serif; font-size: 12px; font-weight: 200;" fill="rgb(33, 33, 33)" stroke="none" stroke-width="1px">24.5</text><text x="0" y="113.14285714285714" dx="0em" dy="0.3em" style="text-anchor: end; visibility: inherit; font-family: Roboto, sans-serif; font-size: 12px; font-weight: 200;" fill="rgb(33, 33, 33)" stroke="none" stroke-width="1px">25</text><text x="0" y="100.57142857142857" dx="0em" dy="0.3em" style="text-anchor: end; visibility: hidden; font-family: Roboto, sans-serif; font-size: 12px; font-weight: 200;" fill="rgb(33, 33, 33)" stroke="none" stroke-width="1px">25.5</text><text x="0" y="88" dx="0em" dy="0.3em" style="text-anchor: end; visibility: inherit; font-family: Roboto, sans-serif; font-size: 12px; font-weight: 200;" fill="rgb(33, 33, 33)" stroke="none" stroke-width="1px">26</text><text x="0" y="75.42857142857143" dx="0em" dy="0.3em" style="text-anchor: end; visibility: hidden; font-family: Roboto, sans-serif; font-size: 12px; font-weight: 200;" fill="rgb(33, 33, 33)" stroke="none" stroke-width="1px">26.5</text><text x="0" y="62.85714285714285" dx="0em" dy="0.3em" style="text-anchor: end; visibility: inherit; font-family: Roboto, sans-serif; font-size: 12px; font-weight: 200;" fill="rgb(33, 33, 33)" stroke="none" stroke-width="1px">27</text><text x="0" y="50.285714285714285" dx="0em" dy="0.3em" style="text-anchor: end; visibility: hidden; font-family: Roboto, sans-serif; font-size: 12px; font-weight: 200;" fill="rgb(33, 33, 33)" stroke="none" stroke-width="1px">27.5</text><text x="0" y="37.714285714285715" dx="0em" dy="0.3em" style="text-anchor: end; visibility: inherit; font-family: Roboto, sans-serif; font-size: 12px; font-weight: 200;" fill="rgb(33, 33, 33)" stroke="none" stroke-width="1px">28</text><text x="0" y="25.142857142857153" dx="0em" dy="0.3em" style="text-anchor: end; visibility: hidden; font-family: Roboto, sans-serif; font-size: 12px; font-weight: 200;" fill="rgb(33, 33, 33)" stroke="none" stroke-width="1px">28.5</text><text x="0" y="12.571428571428566" dx="0em" dy="0.3em" style="text-anchor: end; visibility: inherit; font-family: Roboto, sans-serif; font-size: 12px; font-weight: 200;" fill="rgb(33, 33, 33)" stroke="none" stroke-width="1px">29</text><text x="0" y="0" dx="0em" dy="0.3em" style="text-anchor: end; visibility: hidden; font-family: Roboto, sans-serif; font-size: 12px; font-weight: 200;" fill="rgb(33, 33, 33)" stroke="none" stroke-width="1px">29.5</text></g><line x1="53.1875" y1="0" x2="53.1875" y2="176" fill="rgb(0, 0, 0)" stroke="rgb(204, 204, 204)" stroke-width="1px"></line></g></g><g transform="translate(53, 0)" clip-path="url(#clip_0)"><clipPath id="clip_0"><rect width="276" height="176"></rect></clipPath><g><g><g><line x1="0" y1="0" x2="0" y2="176" fill="rgb(0, 0, 0)" stroke="rgb(66, 66, 66)" stroke-width="1px" opacity="0.25"></line><line x1="21.293269230769234" y1="0" x2="21.293269230769234" y2="176" fill="rgb(0, 0, 0)" stroke="rgb(66, 66, 66)" stroke-width="1px" opacity="0.25"></line><line x1="42.58653846153847" y1="0" x2="42.58653846153847" y2="176" fill="rgb(0, 0, 0)" stroke="rgb(66, 66, 66)" stroke-width="1px" opacity="0.25"></line><line x1="63.87980769230769" y1="0" x2="63.87980769230769" y2="176" fill="rgb(0, 0, 0)" stroke="rgb(66, 66, 66)" stroke-width="1px" opacity="0.25"></line><line x1="85.17307692307693" y1="0" x2="85.17307692307693" y2="176" fill="rgb(0, 0, 0)" stroke="rgb(66, 66, 66)" stroke-width="1px" opacity="0.25"></line><line x1="106.46634615384616" y1="0" x2="106.46634615384616" y2="176" fill="rgb(0, 0, 0)" stroke="rgb(66, 66, 66)" stroke-width="1px" opacity="0.25"></line><line x1="127.75961538461539" y1="0" x2="127.75961538461539" y2="176" fill="rgb(0, 0, 0)" stroke="rgb(66, 66, 66)" stroke-width="1px" opacity="0.25"></line><line x1="149.0528846153846" y1="0" x2="149.0528846153846" y2="176" fill="rgb(0, 0, 0)" stroke="rgb(66, 66, 66)" stroke-width="1px" opacity="0.25"></line><line x1="170.34615384615387" y1="0" x2="170.34615384615387" y2="176" fill="rgb(0, 0, 0)" stroke="rgb(66, 66, 66)" stroke-width="1px" opacity="0.25"></line><line x1="191.63942307692307" y1="0" x2="191.63942307692307" y2="176" fill="rgb(0, 0, 0)" stroke="rgb(66, 66, 66)" stroke-width="1px" opacity="0.25"></line><line x1="212.93269230769232" y1="0" x2="212.93269230769232" y2="176" fill="rgb(0, 0, 0)" stroke="rgb(66, 66, 66)" stroke-width="1px" opacity="0.25"></line><line x1="234.22596153846155" y1="0" x2="234.22596153846155" y2="176" fill="rgb(0, 0, 0)" stroke="rgb(66, 66, 66)" stroke-width="1px" opacity="0.25"></line><line x1="255.51923076923077" y1="0" x2="255.51923076923077" y2="176" fill="rgb(0, 0, 0)" stroke="rgb(66, 66, 66)" stroke-width="1px" opacity="0.25"></line><line x1="276.8125" y1="0" x2="276.8125" y2="176" fill="rgb(0, 0, 0)" stroke="rgb(66, 66, 66)" stroke-width="1px" opacity="0.25"></line></g><g><line x1="0" y1="176" x2="276.8125" y2="176" fill="rgb(0, 0, 0)" stroke="rgb(66, 66, 66)" stroke-width="1px" opacity="0.25"></line><line x1="0" y1="163.42857142857144" x2="276.8125" y2="163.42857142857144" fill="rgb(0, 0, 0)" stroke="rgb(66, 66, 66)" stroke-width="1px" opacity="0.25"></line><line x1="0" y1="150.85714285714286" x2="276.8125" y2="150.85714285714286" fill="rgb(0, 0, 0)" stroke="rgb(66, 66, 66)" stroke-width="1px" opacity="0.25"></line><line x1="0" y1="138.28571428571428" x2="276.8125" y2="138.28571428571428" fill="rgb(0, 0, 0)" stroke="rgb(66, 66, 66)" stroke-width="1px" opacity="0.25"></line><line x1="0" y1="125.71428571428572" x2="276.8125" y2="125.71428571428572" fill="rgb(0, 0, 0)" stroke="rgb(66, 66, 66)" stroke-width="1px" opacity="0.25"></line><line x1="0" y1="113.14285714285714" x2="276.8125" y2="113.14285714285714" fill="rgb(0, 0, 0)" stroke="rgb(66, 66, 66)" stroke-width="1px" opacity="0.25"></line><line x1="0" y1="100.57142857142857" x2="276.8125" y2="100.57142857142857" fill="rgb(0, 0, 0)" stroke="rgb(66, 66, 66)" stroke-width="1px" opacity="0.25"></line><line x1="0" y1="88" x2="276.8125" y2="88" fill="rgb(0, 0, 0)" stroke="rgb(66, 66, 66)" stroke-width="1px" opacity="0.25"></line><line x1="0" y1="75.42857142857143" x2="276.8125" y2="75.42857142857143" fill="rgb(0, 0, 0)" stroke="rgb(66, 66, 66)" stroke-width="1px" opacity="0.25"></line><line x1="0" y1="62.85714285714285" x2="276.8125" y2="62.85714285714285" fill="rgb(0, 0, 0)" stroke="rgb(66, 66, 66)" stroke-width="1px" opacity="0.25"></line><line x1="0" y1="50.285714285714285" x2="276.8125" y2="50.285714285714285" fill="rgb(0, 0, 0)" stroke="rgb(66, 66, 66)" stroke-width="1px" opacity="0.25"></line><line x1="0" y1="37.714285714285715" x2="276.8125" y2="37.714285714285715" fill="rgb(0, 0, 0)" stroke="rgb(66, 66, 66)" stroke-width="1px" opacity="0.25"></line><line x1="0" y1="25.142857142857153" x2="276.8125" y2="25.142857142857153" fill="rgb(0, 0, 0)" stroke="rgb(66, 66, 66)" stroke-width="1px" opacity="0.25"></line><line x1="0" y1="12.571428571428566" x2="276.8125" y2="12.571428571428566" fill="rgb(0, 0, 0)" stroke="rgb(66, 66, 66)" stroke-width="1px" opacity="0.25"></line><line x1="0" y1="0" x2="276.8125" y2="0" fill="rgb(0, 0, 0)" stroke="rgb(66, 66, 66)" stroke-width="1px" opacity="0.25"></line></g></g></g><g><g><line x1="0" y1="741.7142857142858" x2="276.8125" y2="741.7142857142858" fill="rgb(0, 0, 0)" stroke="rgb(153, 153, 153)" stroke-width="1.5px"></line></g></g><g><g><line x1="21.293269230769234" y1="0" x2="21.293269230769234" y2="176" fill="rgb(0, 0, 0)" stroke="rgb(153, 153, 153)" stroke-width="1.5px"></line></g></g><g><g><g><g><g><path stroke="rgb(255, 112, 67)" stroke-width="2px" d="M30.875240384615385,-24.38973840361091L31.939903846153847,6.522203298130933L33.00456730769231,18.492329251808606L34.06923076923077,9.110824620576807L35.13389423076923,9.316629290183982L36.198557692307695,28.5474060099736L37.26322115384615,24.59100335649304L38.32788461538462,19.860276003514386L39.39254807692308,33.60370744723981L40.45721153846154,33.20529052020497L41.521875,36.18777604441287L42.58653846153847,29.56906774890887L43.65120192307692,19.705375706961842L44.715865384615384,16.85175929296303L45.78052884615384,17.57548128285851L46.84519230769231,41.188507172303325L47.90985576923077,34.92712284416193L48.97451923076923,50.970836160636175L50.03918269230769,27.04637927466256L51.103846153846156,37.75615619797133L52.168509615384615,40.09680109627562L53.23317307692308,52.186904131353074L54.29783653846154,50.32617857407298L55.362500000000004,68.06688775558546L56.42716346153846,38.325845518872214L57.49182692307693,46.09575690615041L58.55649038461539,75.58577670700619L59.62115384615385,66.80133165625352L60.685817307692304,64.83041533200121L61.75048076923077,45.419294048998395L62.81514423076923,69.75910299032256L63.87980769230769,56.941176062773536L64.94447115384615,82.56470565821552L66.00913461538462,54.488957658762175L67.07379807692308,73.31518682167523L68.13846153846154,53.96781779556852L69.203125,78.10951148063175L70.26778846153846,80.02309911785117L71.33245192307692,76.1426802713467L72.39711538461539,71.77182119284384L73.46177884615385,81.09116539998372L74.5264423076923,91.8692343265729L75.59110576923077,82.54335281688064L76.65576923076924,88.10419946916255L77.7204326923077,85.7835646033683L78.78509615384615,88.08417510409939L79.84975961538461,103.29311283311648L80.91442307692309,97.48965466973381L81.97908653846154,98.40857726054585L83.04375,109.8025385856817L84.10841346153846,113.49605823790488L85.17307692307693,106.75527654430512L86.23774038461539,102.23912958450705L87.30240384615384,96.3865842657711L88.3670673076923,104.8963705510923L89.43173076923077,109.37367089371344L90.49639423076923,87.85953317238868L91.56105769230768,96.40193293356704L92.62572115384614,99.79855198949292L93.69038461538462,98.69366628019128L94.75504807692307,90.4878777117533L95.81971153846153,99.39297599926175L96.88437499999999,121.15734844832929L97.94903846153846,120.62273112535917L99.01370192307692,121.55910358871989L100.07836538461538,113.39936421796413L101.14302884615384,120.5258315609124L102.20769230769231,117.65107894491797L103.27235576923077,127.71221021572316L104.33701923076923,124.79199549327322L105.40168269230769,131.21129523123176L106.46634615384616,128.22702651094883L107.53100961538462,135.0001179713014L108.59567307692308,123.82136507686567L109.66033653846154,135.1465822994676L110.72500000000001,125.55962732331896L111.78966346153847,147.1498127360673L112.85432692307693,145.88312843405114L113.91899038461538,147.08726928978336L114.98365384615386,145.53079872509772L116.04831730769232,130.92523844264795L117.11298076923077,138.97643735967364L118.17764423076923,120.70690733767914L119.2423076923077,142.5103574327414L120.30697115384616,134.92802668062694L121.37163461538461,135.8778609302512L122.43629807692307,118.61243084386493L123.50096153846154,128.76069929872963L124.565625,111.27771387332257L125.63028846153846,121.29544912477479L126.69495192307691,117.64117153959705L127.75961538461539,125.19198005824482L128.82427884615385,133.41543740715673L129.8889423076923,142.51316450902613L130.95360576923076,148.75828235496928L132.01826923076925,154.70483513563784L133.0829326923077,142.95172188216404L134.14759615384617,136.1351845662404L135.21225961538462,130.15954789097196L136.27692307692308,126.02405079094478L137.34158653846154,115.52921493327221L138.40625,148.37974122279815L139.47091346153846,120.22108552608955L140.53557692307692,136.16849987871177L141.60024038461538,138.66576929106634L142.66490384615383,126.33555950990771L143.72956730769232,126.00861284043127L144.79423076923078,123.37659627568733L145.85889423076924,124.62545902099276L146.9235576923077,115.16074032610015L147.98822115384615,118.20345277545927L149.0528846153846,113.42959817197199L150.11754807692307,115.67229398967869L151.18221153846153,132.26051925095004L152.24687500000002,124.84878504387362L153.31153846153848,135.25212816918133L154.37620192307693,129.62971405273646L155.4408653846154,140.3211843189187L156.50552884615385,130.78543345686467L157.5701923076923,147.6141172169759L158.63485576923077,150.5617111225963L159.69951923076923,136.85131238784345L160.7641826923077,139.46768091763911L161.82884615384617,142.8447599875255L162.89350961538463,142.59207153380999L163.9581730769231,134.34848371269675L165.02283653846155,136.00181309313143L166.0875,126.22965928445025L167.15216346153846,121.93829431508972L168.21682692307692,107.49907452432167L169.2814903846154,112.89944471459306L170.34615384615387,127.06071175063084L171.41081730769233,139.72214133609285L172.47548076923078,133.7257582949592L173.54014423076922,144.66352766112738L174.60480769230767,139.28432962681032L175.66947115384613,138.8064463391442L176.7341346153846,151.32647557413384L177.79879807692308,145.56003678142224L178.86346153846154,148.30745064028187L179.928125,145.00576467825397L180.99278846153845,149.6252710279345L182.0574519230769,157.3863180994616L183.12211538461537,138.90346880331535L184.18677884615383,145.8854371692659L185.2514423076923,142.61021737968457L186.31610576923077,137.89445248417235L187.38076923076923,133.4156265686284L188.4454326923077,151.31327800590913L189.51009615384615,132.43057457419283L190.5747596153846,158.85446639630135L191.63942307692307,154.71218109336115L192.70408653846152,162.59873722744527L193.76874999999998,148.15874359204753L194.83341346153847,149.3949967830187L195.89807692307693,146.75856091858356L196.9627403846154,144.233324330168L198.02740384615385,140.59713745524368L199.0920673076923,150.90841675049L200.15673076923076,144.83752354359763L201.22139423076922,146.93158429914962L202.28605769230768,162.33037915091836L203.35072115384617,153.96965606197952L204.41538461538462,155.23893649433055L205.48004807692308,156.70751333354025L206.54471153846154,136.68892799175364L207.609375,154.29907108076645L208.67403846153846,146.95037247546878L209.73870192307692,159.0419014289197L210.80336538461538,151.2895608489813L211.86802884615383,154.02412015894242L212.93269230769232,168.6285084374413L213.99735576923078,170.94853363389336L215.06201923076924,161.73327161727798L216.1266826923077,165.0825707410141L217.19134615384615,161.9066853017514L218.2560096153846,138.94351243663115L219.32067307692307,132.3162417393224L220.38533653846153,145.0749605848881L221.45000000000002,128.37379715171403L222.51466346153848,143.41751908343915L223.57932692307693,149.37933225084473L224.6439903846154,148.2416356925827L225.70865384615385,159.2665442643219L226.7733173076923,165.48824861495473L227.83798076923077,175.58542266227641L228.90264423076923,171.82293154100427L229.9673076923077,160.1368654396695L231.03197115384617,174.16276414382406L232.09663461538463,168.29815723071405L233.1612980769231,158.65057228206678L234.22596153846155,163.46929844736508L235.290625,171.46754272634308L236.35528846153846,163.26261094551563L237.41995192307692,147.9294938831576L238.4846153846154,148.94365998781873L239.54927884615387,143.1880082136734L240.61394230769233,157.88373475521294L241.67860576923078,169.21545639442235L242.74326923076922,178.76512239971146L243.80793269230767,162.88714612397865L244.87259615384613,162.31825133231135L245.9372596153846,166.37691445731087L247.00192307692308,159.775765024833L248.06658653846154,151.17974472918547L249.13125,165.6647403224443L250.19591346153845,154.3198891153415L251.2605769230769,154.50572043907096L252.32524038461537,157.5247265575274L253.38990384615383,152.57873799924857L254.4545673076923,148.1186713709777L255.51923076923077,137.42809630751964L256.58389423076926,149.32075984924393L257.6485576923077,129.8994644893455L258.7132211538462,140.48303458088404L259.7778846153846,137.6399550258742L260.8425480769231,151.25515221474325L261.9072115384615,140.41023418598877L262.971875,129.6601768536691L264.0365384615385,145.36803342804973" style="fill: none;" fill="none"></path></g></g></g></g><g opacity="0.2"><g><g><g><path stroke="rgb(255, 112, 67)" stroke-width="2px" d="M30.875240384615385,-2.1597551618303683L31.939903846153847,52.42283412388393L33.00456730769231,36.33895002092634L34.06923076923077,-4.9103785923549275L35.13389423076923,9.624664306640625L36.198557692307695,57.35589599609375L37.26322115384615,18.66104997907366L38.32788461538462,12.767521449497776L39.39254807692308,54.2130388532366L40.45721153846154,32.60776628766741L41.521875,40.66104997907366L42.58653846153847,19.641610281808035L43.65120192307692,4.910378592354908L44.715865384615384,12.571428571428566L45.78052884615384,18.66104997907366L46.84519230769231,76.6077662876674L47.90985576923077,25.535090855189722L48.97451923076923,75.03633771623885L50.03918269230769,-8.840244838169632L51.103846153846156,53.82080514090403L52.168509615384615,43.60776628766741L53.23317307692308,70.32205200195312L54.29783653846154,47.53509085518972L55.362500000000004,94.67794799804688L56.42716346153846,-6.2857142857143025L57.49182692307693,57.750623430524556L58.55649038461539,119.82080514090401L59.62115384615385,53.624664306640625L60.685817307692304,61.87404087611607L61.75048076923077,16.3026123046875L62.81514423076923,106.26881626674107L63.87980769230769,37.714285714285715L64.94447115384615,121L66.00913461538462,12.375335693359375L67.07379807692308,101.55453055245536L68.13846153846154,24.94676426478794L69.203125,114.32205200195312L70.26778846153846,82.8934805733817L71.33245192307692,70.32205200195312L72.39711538461539,65.21553257533482L73.46177884615385,95.07018171037947L74.5264423076923,108.03633771623885L75.59110576923077,68.55453055245535L76.65576923076924,96.44546944754464L77.7204326923077,82.3026123046875L78.78509615384615,91.53509085518974L79.84975961538461,126.1065194266183L80.91442307692309,88.78446742466518L81.97908653846154,99.78696114676339L83.04375,126.8934805733817L84.10841346153846,119.03633771623885L85.17307692307693,96.64410400390625L86.23774038461539,95.46490914481026L87.30240384615384,87.6077662876674L88.3670673076923,117.66104997907365L89.43173076923077,116.0896214076451L90.49639423076923,55.588326590401785L91.56105769230768,109.21553257533482L92.62572115384614,104.8934805733817L93.69038461538462,97.03633771623885L94.75504807692307,78.17919485909597L95.81971153846153,112.75062343052456L96.88437499999999,153.80390712193082L97.94903846153846,119.82080514090401L99.01370192307692,122.96366228376115L100.07836538461538,101.15975516183036L101.14302884615384,131.2155325753348L102.20769230769231,113.33895002092635L103.27235576923077,142.80390712193082L104.33701923076923,120.41167340959822L105.40168269230769,140.84024483816964L106.46634615384616,123.75062343052456L107.53100961538462,145.15975516183036L108.59567307692308,107.05323573521206L109.66033653846154,152.13440813337053L110.72500000000001,111.17919485909599L111.78966346153847,179.53509085518974L112.85432692307693,143.98310198102678L113.91899038461538,148.89348057338168L114.98365384615386,143.19609287806918L116.04831730769232,109.01689801897322L117.11298076923077,151.05323573521207L118.17764423076923,93.3026123046875L119.2423076923077,175.2155325753348L120.30697115384616,123.55453055245536L121.37163461538461,137.3026123046875L122.43629807692307,92.71428571428572L123.50096153846154,143.98310198102678L124.565625,85.05323573521206L125.63028846153846,136.32205200195312L126.69495192307691,112.15975516183036L127.75961538461539,136.5181928362165L128.82427884615385,145.75062343052457L129.8889423076923,156.15975516183036L130.95360576923076,158.12595912388394L132.01826923076925,163.62466430664062L133.0829326923077,125.32205200195312L134.14759615384617,125.9103785923549L135.21225961538462,121.1960928780692L136.27692307692308,119.82080514090401L137.34158653846154,99.78696114676339L138.40625,197.65553065708707L139.47091346153846,77.98310198102678L140.53557692307692,160.0896214076451L141.60024038461538,142.41167340959822L142.66490384615383,107.84024483816964L143.72956730769232,125.51819283621651L144.79423076923078,119.42857142857143L145.85889423076924,126.49875313895089L146.9235576923077,100.96366228376115L147.98822115384615,122.76752144949776L149.0528846153846,106.26881626674107L150.11754807692307,119.03633771623885L151.18221153846153,157.14285714285714L152.24687500000002,113.73118373325893L153.31153846153848,150.85714285714286L154.37620192307693,121.1960928780692L155.4408653846154,156.35838971819197L156.50552884615385,116.48180716378349L157.5701923076923,172.85714285714286L158.63485576923077,154.98310198102678L159.69951923076923,116.28571428571428L160.7641826923077,143.3922337123326L161.82884615384617,147.9103785923549L162.89350961538463,142.2130388532366L163.9581730769231,121.98310198102678L165.02283653846155,138.4818071637835L166.0875,111.57142857142857L167.15216346153846,115.50124686104911L168.21682692307692,85.84024483816965L169.2814903846154,121L170.34615384615387,148.3026123046875L171.41081730769233,158.71428571428572L172.47548076923078,124.73118373325893L173.54014423076922,161.07018171037947L174.60480769230767,131.2155325753348L175.66947115384613,138.0896214076451L176.7341346153846,170.10651942661832L177.79879807692308,136.9103785923549L178.86346153846154,152.42857142857144L179.928125,140.05323573521207L180.99278846153845,156.55453055245536L182.0574519230769,169.02788870675224L183.12211538461537,111.17919485909599L184.18677884615383,156.35838971819197L185.2514423076923,137.6973876953125L186.31610576923077,130.820805140904L187.38076923076923,126.6973876953125L188.4454326923077,178.15975516183036L189.51009615384615,104.1065194266183L190.5747596153846,198.4903041294643L191.63942307692307,148.4987531389509L192.70408653846152,174.42857142857144L193.76874999999998,126.49875313895089L194.83341346153847,151.24937656947543L195.89807692307693,142.80390712193082L196.9627403846154,140.44546944754464L198.02740384615385,135.14285714285714L199.0920673076923,166.37533569335938L200.15673076923076,135.73118373325894L201.22139423076922,150.0726754324777L202.28605769230768,185.42857142857144L203.35072115384617,141.42857142857144L204.41538461538462,157.14285714285714L205.48004807692308,158.9103785923549L206.54471153846154,106.66104997907365L207.609375,180.7142857142857L208.67403846153846,135.9273245675223L209.73870192307692,177.179194859096L210.80336538461538,139.66104997907365L211.86802884615383,158.12595912388394L212.93269230769232,190.53509085518974L213.99735576923078,174.42857142857144L215.06201923076924,147.9103785923549L216.1266826923077,170.10651942661832L217.19134615384615,157.14285714285714L218.2560096153846,104.49875313895089L219.32067307692307,122.37533569335938L220.38533653846153,164.2130388532366L221.45000000000002,103.32205200195312L222.51466346153848,165.98310198102678L223.57932692307693,158.32205200195312L224.6439903846154,146.53509085518974L225.70865384615385,175.80390712193082L226.7733173076923,174.820805140904L227.83798076923077,190.73118373325894L228.90264423076923,166.179194859096L229.9673076923077,142.6077662876674L231.03197115384617,195.20161220005582L232.09663461538463,159.5012468610491L233.1612980769231,144.179194859096L234.22596153846155,170.6973876953125L235.290625,183.46490914481026L236.35528846153846,150.95521327427457L237.41995192307692,124.92981828962053L238.4846153846154,150.46490914481026L239.54927884615387,134.55453055245536L240.61394230769233,179.9273245675223L242.74326923076922,193.08962140764507L243.80793269230767,139.07018171037947L244.87259615384613,161.46490914481026L245.9372596153846,172.46490914481026L247.00192307692308,149.87404087611606L248.06658653846154,138.28571428571428L249.13125,187.39223371233257L250.19591346153845,137.3026123046875L251.2605769230769,154.7844674246652L252.32524038461537,162.05323573521207L253.38990384615383,145.15975516183036L254.4545673076923,141.42857142857144L255.51923076923077,121.3922337123326L256.58389423076926,167.15975516183036L257.6485576923077,100.76752144949776L258.7132211538462,156.35838971819197L259.7778846153846,133.37533569335938L260.8425480769231,171.67794799804688L261.9072115384615,124.14285714285714L262.971875,113.53509085518974L264.0365384615385,168.92981828962053" style="fill: none;" fill="none"></path></g></g></g></g></g></g><g transform="translate(53, 176)" clip-path="url(#clip_1)"><clipPath id="clip_1"><rect width="276" height="24"></rect></clipPath><g><g><line x1="0" y1="0" x2="0" y2="5" style="visibility: inherit;" fill="rgb(0, 0, 0)" stroke="rgb(204, 204, 204)" stroke-width="1px"></line><line x1="21.293269230769234" y1="0" x2="21.293269230769234" y2="5" style="visibility: inherit;" fill="rgb(0, 0, 0)" stroke="rgb(204, 204, 204)" stroke-width="1px"></line><line x1="42.58653846153847" y1="0" x2="42.58653846153847" y2="5" style="visibility: inherit;" fill="rgb(0, 0, 0)" stroke="rgb(204, 204, 204)" stroke-width="1px"></line><line x1="63.87980769230769" y1="0" x2="63.87980769230769" y2="5" style="visibility: inherit;" fill="rgb(0, 0, 0)" stroke="rgb(204, 204, 204)" stroke-width="1px"></line><line x1="85.17307692307693" y1="0" x2="85.17307692307693" y2="5" style="visibility: inherit;" fill="rgb(0, 0, 0)" stroke="rgb(204, 204, 204)" stroke-width="1px"></line><line x1="106.46634615384616" y1="0" x2="106.46634615384616" y2="5" style="visibility: inherit;" fill="rgb(0, 0, 0)" stroke="rgb(204, 204, 204)" stroke-width="1px"></line><line x1="127.75961538461539" y1="0" x2="127.75961538461539" y2="5" style="visibility: inherit;" fill="rgb(0, 0, 0)" stroke="rgb(204, 204, 204)" stroke-width="1px"></line><line x1="149.0528846153846" y1="0" x2="149.0528846153846" y2="5" style="visibility: inherit;" fill="rgb(0, 0, 0)" stroke="rgb(204, 204, 204)" stroke-width="1px"></line><line x1="170.34615384615387" y1="0" x2="170.34615384615387" y2="5" style="visibility: inherit;" fill="rgb(0, 0, 0)" stroke="rgb(204, 204, 204)" stroke-width="1px"></line><line x1="191.63942307692307" y1="0" x2="191.63942307692307" y2="5" style="visibility: inherit;" fill="rgb(0, 0, 0)" stroke="rgb(204, 204, 204)" stroke-width="1px"></line><line x1="212.93269230769232" y1="0" x2="212.93269230769232" y2="5" style="visibility: inherit;" fill="rgb(0, 0, 0)" stroke="rgb(204, 204, 204)" stroke-width="1px"></line><line x1="234.22596153846155" y1="0" x2="234.22596153846155" y2="5" style="visibility: inherit;" fill="rgb(0, 0, 0)" stroke="rgb(204, 204, 204)" stroke-width="1px"></line><line x1="255.51923076923077" y1="0" x2="255.51923076923077" y2="5" style="visibility: inherit;" fill="rgb(0, 0, 0)" stroke="rgb(204, 204, 204)" stroke-width="1px"></line><line x1="276.8125" y1="0" x2="276.8125" y2="5" style="visibility: inherit;" fill="rgb(0, 0, 0)" stroke="rgb(204, 204, 204)" stroke-width="1px"></line></g><g transform="translate(0, 8)"><text x="0" y="0" dx="0em" dy="0.95em" style="text-anchor: middle; visibility: hidden; font-family: Roboto, sans-serif; font-size: 12px; font-weight: 200;" fill="rgb(33, 33, 33)" stroke="none" stroke-width="1px">-20</text><text x="21.293269230769234" y="0" dx="0em" dy="0.95em" style="text-anchor: middle; visibility: inherit; font-family: Roboto, sans-serif; font-size: 12px; font-weight: 200;" fill="rgb(33, 33, 33)" stroke="none" stroke-width="1px">0</text><text x="42.58653846153847" y="0" dx="0em" dy="0.95em" style="text-anchor: middle; visibility: hidden; font-family: Roboto, sans-serif; font-size: 12px; font-weight: 200;" fill="rgb(33, 33, 33)" stroke="none" stroke-width="1px">20</text><text x="63.87980769230769" y="0" dx="0em" dy="0.95em" style="text-anchor: middle; visibility: inherit; font-family: Roboto, sans-serif; font-size: 12px; font-weight: 200;" fill="rgb(33, 33, 33)" stroke="none" stroke-width="1px">40</text><text x="85.17307692307693" y="0" dx="0em" dy="0.95em" style="text-anchor: middle; visibility: hidden; font-family: Roboto, sans-serif; font-size: 12px; font-weight: 200;" fill="rgb(33, 33, 33)" stroke="none" stroke-width="1px">60</text><text x="106.46634615384616" y="0" dx="0em" dy="0.95em" style="text-anchor: middle; visibility: inherit; font-family: Roboto, sans-serif; font-size: 12px; font-weight: 200;" fill="rgb(33, 33, 33)" stroke="none" stroke-width="1px">80</text><text x="127.75961538461539" y="0" dx="0em" dy="0.95em" style="text-anchor: middle; visibility: hidden; font-family: Roboto, sans-serif; font-size: 12px; font-weight: 200;" fill="rgb(33, 33, 33)" stroke="none" stroke-width="1px">100</text><text x="149.0528846153846" y="0" dx="0em" dy="0.95em" style="text-anchor: middle; visibility: inherit; font-family: Roboto, sans-serif; font-size: 12px; font-weight: 200;" fill="rgb(33, 33, 33)" stroke="none" stroke-width="1px">120</text><text x="170.34615384615387" y="0" dx="0em" dy="0.95em" style="text-anchor: middle; visibility: hidden; font-family: Roboto, sans-serif; font-size: 12px; font-weight: 200;" fill="rgb(33, 33, 33)" stroke="none" stroke-width="1px">140</text><text x="191.63942307692307" y="0" dx="0em" dy="0.95em" style="text-anchor: middle; visibility: inherit; font-family: Roboto, sans-serif; font-size: 12px; font-weight: 200;" fill="rgb(33, 33, 33)" stroke="none" stroke-width="1px">160</text><text x="212.93269230769232" y="0" dx="0em" dy="0.95em" style="text-anchor: middle; visibility: hidden; font-family: Roboto, sans-serif; font-size: 12px; font-weight: 200;" fill="rgb(33, 33, 33)" stroke="none" stroke-width="1px">180</text><text x="234.22596153846155" y="0" dx="0em" dy="0.95em" style="text-anchor: middle; visibility: inherit; font-family: Roboto, sans-serif; font-size: 12px; font-weight: 200;" fill="rgb(33, 33, 33)" stroke="none" stroke-width="1px">200</text><text x="255.51923076923077" y="0" dx="0em" dy="0.95em" style="text-anchor: middle; visibility: hidden; font-family: Roboto, sans-serif; font-size: 12px; font-weight: 200;" fill="rgb(33, 33, 33)" stroke="none" stroke-width="1px">220</text><text x="276.8125" y="0" dx="0em" dy="0.95em" style="text-anchor: middle; visibility: hidden; font-family: Roboto, sans-serif; font-size: 12px; font-weight: 200;" fill="rgb(33, 33, 33)" stroke="none" stroke-width="1px">240</text></g><line x1="0" y1="0" x2="276.8125" y2="0" fill="rgb(0, 0, 0)" stroke="rgb(204, 204, 204)" stroke-width="1px"></line></g></g></g></g></svg>